<svg xmlns="http://www.w3.org/2000/svg" xmlns:xlink="http://www.w3.org/1999/xlink" width="500" zoomAndPan="magnify" viewBox="0 0 375 374.999991" height="500" preserveAspectRatio="xMidYMid meet" version="1.0"><defs><g/></defs><g fill="#2b2b2b" fill-opacity="1"><g transform="translate(173.572347, 184.450073)"><g><path d="M 4.140625 -1.65625 L 10.484375 -1.65625 C 11.410156 -1.65625 12.398438 -1.863281 13.453125 -2.28125 C 14.515625 -2.695312 15.457031 -3.546875 16.28125 -4.828125 C 17.113281 -6.117188 17.53125 -8.003906 17.53125 -10.484375 L 17.53125 -127.546875 C 17.53125 -130.117188 17.113281 -132.023438 16.28125 -133.265625 C 15.457031 -134.503906 14.515625 -135.332031 13.453125 -135.75 C 12.398438 -136.164062 11.410156 -136.375 10.484375 -136.375 L 4.140625 -136.375 L 4.140625 -138.03125 L 41 -138.03125 L 41 -136.375 L 34.640625 -136.375 C 33.816406 -136.375 32.851562 -136.164062 31.75 -135.75 C 30.644531 -135.332031 29.675781 -134.503906 28.84375 -133.265625 C 28.019531 -132.023438 27.609375 -130.117188 27.609375 -127.546875 L 27.609375 -72.1875 C 29.816406 -75.320312 32 -78.335938 34.15625 -81.234375 C 36.320312 -84.128906 38.507812 -87.097656 40.71875 -90.140625 C 44.488281 -95.285156 47.984375 -100.25 51.203125 -105.03125 C 54.429688 -109.820312 57.03125 -114.285156 59 -118.421875 C 60.976562 -122.566406 61.96875 -126.203125 61.96875 -129.328125 C 61.96875 -132.460938 60.722656 -134.421875 58.234375 -135.203125 C 55.753906 -135.984375 53 -136.375 49.96875 -136.375 L 49.96875 -138.03125 L 92.625 -138.03125 L 92.625 -136.375 C 89.394531 -136.375 86.238281 -135.910156 83.15625 -134.984375 C 80.082031 -134.066406 76.976562 -132.390625 73.84375 -129.953125 C 70.71875 -127.515625 67.359375 -123.90625 63.765625 -119.125 C 59.535156 -113.507812 55.375 -107.800781 51.28125 -102 C 47.1875 -96.207031 43.066406 -90.410156 38.921875 -84.609375 C 44.441406 -73.660156 50.191406 -62.800781 56.171875 -52.03125 C 62.160156 -41.269531 68.050781 -30.457031 73.84375 -19.59375 C 75.875 -15.914062 77.757812 -12.742188 79.5 -10.078125 C 81.25 -7.410156 83.390625 -5.335938 85.921875 -3.859375 C 88.453125 -2.390625 91.878906 -1.65625 96.203125 -1.65625 L 96.203125 0 L 72.875 0 L 32.296875 -75.359375 L 27.609375 -68.734375 L 27.609375 -10.484375 C 27.609375 -8.003906 28.019531 -6.117188 28.84375 -4.828125 C 29.675781 -3.546875 30.644531 -2.695312 31.75 -2.28125 C 32.851562 -1.863281 33.816406 -1.65625 34.640625 -1.65625 L 41 -1.65625 L 41 0 L 4.140625 0 Z M 4.140625 -1.65625 "/></g></g></g><g fill="#2b2b2b" fill-opacity="1"><g transform="translate(76.949922, 270.049905)"><g><path d="M 4.140625 -138.03125 L 83.78125 -138.03125 C 86.539062 -138.03125 88.882812 -138.144531 90.8125 -138.375 C 92.75 -138.601562 94.222656 -139.410156 95.234375 -140.796875 L 96.625 -140.796875 L 70.8125 -69.015625 L 68.875 -69.015625 L 81.296875 -103.515625 C 83.410156 -110.054688 84.191406 -115.441406 83.640625 -119.671875 C 83.085938 -123.898438 81.660156 -127.253906 79.359375 -129.734375 C 77.066406 -132.222656 74.21875 -133.972656 70.8125 -134.984375 C 67.40625 -136.003906 63.863281 -136.515625 60.1875 -136.515625 L 27.609375 -136.515625 L 27.609375 -88.75 L 38.515625 -88.75 C 42.554688 -88.75 45.472656 -89.414062 47.265625 -90.75 C 49.066406 -92.082031 50.195312 -93.875 50.65625 -96.125 C 51.113281 -98.382812 51.34375 -100.847656 51.34375 -103.515625 L 53 -103.515625 L 53 -45.140625 L 51.625 -45.140625 L 51.625 -65.703125 C 51.625 -72.054688 50.101562 -77.234375 47.0625 -81.234375 C 44.03125 -85.234375 39.15625 -87.234375 32.4375 -87.234375 L 27.609375 -87.234375 L 27.609375 -10.484375 C 27.609375 -8.003906 28.019531 -6.117188 28.84375 -4.828125 C 29.675781 -3.546875 30.644531 -2.695312 31.75 -2.28125 C 32.851562 -1.863281 33.816406 -1.65625 34.640625 -1.65625 L 41 -1.65625 L 41 0 L 4.140625 0 L 4.140625 -1.65625 L 10.484375 -1.65625 C 11.410156 -1.65625 12.398438 -1.863281 13.453125 -2.28125 C 14.515625 -2.695312 15.457031 -3.546875 16.28125 -4.828125 C 17.113281 -6.117188 17.53125 -8.003906 17.53125 -10.484375 L 17.53125 -127.546875 C 17.53125 -130.117188 17.113281 -132.023438 16.28125 -133.265625 C 15.457031 -134.503906 14.515625 -135.332031 13.453125 -135.75 C 12.398438 -136.164062 11.410156 -136.375 10.484375 -136.375 L 4.140625 -136.375 Z M 4.140625 -138.03125 "/></g></g></g><g fill="#2b2b2b" fill-opacity="1"><g transform="translate(144.667188, 230.648392)"><g><path d="M 8.109375 -13.828125 L 8.546875 -13.890625 C 8.742188 -13.890625 8.851562 -13.726562 8.875 -13.40625 C 8.894531 -13.09375 8.921875 -12.835938 8.953125 -12.640625 C 8.984375 -12.441406 9.015625 -12.257812 9.046875 -12.09375 C 9.085938 -11.9375 9.117188 -11.800781 9.140625 -11.6875 C 9.171875 -11.570312 9.1875 -11.476562 9.1875 -11.40625 C 9.1875 -11.332031 9.144531 -11.265625 9.0625 -11.203125 C 8.976562 -11.140625 8.894531 -11.109375 8.8125 -11.109375 C 8.644531 -11.109375 8.488281 -11.273438 8.34375 -11.609375 C 8.050781 -12.265625 7.804688 -12.6875 7.609375 -12.875 C 7.160156 -13.269531 6.492188 -13.46875 5.609375 -13.46875 C 4.390625 -13.46875 3.570312 -13.101562 3.15625 -12.375 C 3.019531 -12.144531 2.953125 -11.859375 2.953125 -11.515625 C 2.953125 -11.171875 3.03125 -10.847656 3.1875 -10.546875 C 3.351562 -10.253906 3.601562 -9.953125 3.9375 -9.640625 C 4.28125 -9.335938 4.710938 -9.015625 5.234375 -8.671875 C 5.753906 -8.328125 6.3125 -7.945312 6.90625 -7.53125 C 7.507812 -7.125 7.976562 -6.753906 8.3125 -6.421875 C 8.644531 -6.085938 8.914062 -5.757812 9.125 -5.4375 C 9.53125 -4.820312 9.734375 -4.21875 9.734375 -3.625 C 9.734375 -3.039062 9.644531 -2.519531 9.46875 -2.0625 C 9.300781 -1.613281 9.03125 -1.21875 8.65625 -0.875 C 7.84375 -0.113281 6.640625 0.265625 5.046875 0.265625 C 4.242188 0.265625 3.351562 0.0859375 2.375 -0.265625 C 2.15625 -0.347656 2.019531 -0.4375 1.96875 -0.53125 C 1.90625 -0.644531 1.847656 -0.863281 1.796875 -1.1875 C 1.742188 -1.519531 1.6875 -1.816406 1.625 -2.078125 C 1.5625 -2.347656 1.5 -2.585938 1.4375 -2.796875 L 1.296875 -3.34375 C 1.253906 -3.5 1.234375 -3.628906 1.234375 -3.734375 C 1.234375 -3.984375 1.328125 -4.109375 1.515625 -4.109375 C 1.765625 -4.109375 1.945312 -3.914062 2.0625 -3.53125 C 2.25 -2.851562 2.421875 -2.414062 2.578125 -2.21875 C 3.171875 -1.4375 3.859375 -0.925781 4.640625 -0.6875 C 4.867188 -0.613281 5.175781 -0.578125 5.5625 -0.578125 C 5.945312 -0.578125 6.320312 -0.632812 6.6875 -0.75 C 7.0625 -0.863281 7.375 -1.019531 7.625 -1.21875 C 8.082031 -1.59375 8.3125 -2.050781 8.3125 -2.59375 C 8.3125 -3.132812 8.140625 -3.617188 7.796875 -4.046875 C 7.453125 -4.484375 7.035156 -4.863281 6.546875 -5.1875 C 6.066406 -5.507812 5.707031 -5.75 5.46875 -5.90625 C 5.226562 -6.0625 5.003906 -6.207031 4.796875 -6.34375 C 3.035156 -7.519531 1.992188 -8.691406 1.671875 -9.859375 C 1.585938 -10.160156 1.546875 -10.507812 1.546875 -10.90625 C 1.546875 -11.300781 1.640625 -11.707031 1.828125 -12.125 C 2.023438 -12.539062 2.304688 -12.90625 2.671875 -13.21875 C 3.472656 -13.90625 4.503906 -14.25 5.765625 -14.25 C 6.347656 -14.25 6.8125 -14.1875 7.15625 -14.0625 C 7.644531 -13.90625 7.960938 -13.828125 8.109375 -13.828125 Z M 8.109375 -13.828125 "/></g></g></g><g fill="#2b2b2b" fill-opacity="1"><g transform="translate(161.857489, 230.648392)"><g><path d="M 1.390625 0.15625 C 0.929688 0.15625 0.703125 0.0234375 0.703125 -0.234375 C 0.703125 -0.429688 0.828125 -0.53125 1.078125 -0.53125 L 1.59375 -0.484375 C 1.96875 -0.484375 2.226562 -0.660156 2.375 -1.015625 C 2.539062 -1.421875 2.625 -2.1875 2.625 -3.3125 L 2.625 -10.671875 C 2.625 -11.828125 2.5625 -12.550781 2.4375 -12.84375 C 2.3125 -13.132812 2.1875 -13.316406 2.0625 -13.390625 C 1.9375 -13.460938 1.78125 -13.5 1.59375 -13.5 L 1.078125 -13.46875 C 0.828125 -13.46875 0.703125 -13.566406 0.703125 -13.765625 C 0.703125 -14.023438 0.894531 -14.15625 1.28125 -14.15625 C 1.664062 -14.15625 2.03125 -14.125 2.375 -14.0625 C 2.71875 -14.007812 3.078125 -13.984375 3.453125 -13.984375 C 3.828125 -13.984375 4.179688 -14.007812 4.515625 -14.0625 C 4.847656 -14.125 5.203125 -14.15625 5.578125 -14.15625 C 5.960938 -14.15625 6.15625 -14.023438 6.15625 -13.765625 C 6.15625 -13.566406 6.03125 -13.46875 5.78125 -13.46875 L 5.28125 -13.5 C 4.90625 -13.5 4.644531 -13.320312 4.5 -12.96875 C 4.34375 -12.5625 4.265625 -11.796875 4.265625 -10.671875 L 4.265625 -8.3125 L 11.640625 -8.3125 L 11.640625 -10.671875 C 11.640625 -11.828125 11.578125 -12.550781 11.453125 -12.84375 C 11.328125 -13.132812 11.203125 -13.316406 11.078125 -13.390625 C 10.953125 -13.460938 10.796875 -13.5 10.609375 -13.5 L 10.109375 -13.46875 C 9.859375 -13.46875 9.734375 -13.566406 9.734375 -13.765625 C 9.734375 -14.023438 9.921875 -14.15625 10.296875 -14.15625 C 10.679688 -14.15625 11.046875 -14.125 11.390625 -14.0625 C 11.734375 -14.007812 12.09375 -13.984375 12.46875 -13.984375 C 12.84375 -13.984375 13.195312 -14.007812 13.53125 -14.0625 C 13.863281 -14.125 14.21875 -14.15625 14.59375 -14.15625 C 14.976562 -14.15625 15.171875 -14.023438 15.171875 -13.765625 C 15.171875 -13.566406 15.046875 -13.46875 14.796875 -13.46875 L 14.296875 -13.5 C 13.921875 -13.5 13.660156 -13.320312 13.515625 -12.96875 C 13.359375 -12.5625 13.28125 -11.796875 13.28125 -10.671875 L 13.28125 -3.3125 C 13.28125 -2.175781 13.335938 -1.457031 13.453125 -1.15625 C 13.578125 -0.851562 13.703125 -0.664062 13.828125 -0.59375 C 13.960938 -0.519531 14.117188 -0.484375 14.296875 -0.484375 L 14.796875 -0.53125 C 15.046875 -0.53125 15.171875 -0.429688 15.171875 -0.234375 C 15.171875 0.0234375 14.945312 0.15625 14.5 0.15625 C 14.269531 0.15625 14.03125 0.132812 13.78125 0.09375 C 13.382812 0.03125 12.953125 0 12.484375 0 C 12.023438 0 11.617188 0.0234375 11.265625 0.078125 C 10.910156 0.128906 10.625 0.15625 10.40625 0.15625 C 9.957031 0.15625 9.734375 0.0234375 9.734375 -0.234375 C 9.734375 -0.429688 9.859375 -0.53125 10.109375 -0.53125 L 10.609375 -0.484375 C 10.984375 -0.484375 11.242188 -0.660156 11.390625 -1.015625 C 11.554688 -1.421875 11.640625 -2.1875 11.640625 -3.3125 L 11.640625 -7.3125 L 4.265625 -7.3125 L 4.265625 -3.3125 C 4.265625 -2.175781 4.320312 -1.457031 4.4375 -1.15625 C 4.5625 -0.851562 4.6875 -0.664062 4.8125 -0.59375 C 4.945312 -0.519531 5.101562 -0.484375 5.28125 -0.484375 L 5.78125 -0.53125 C 6.03125 -0.53125 6.15625 -0.429688 6.15625 -0.234375 C 6.15625 0.0234375 5.929688 0.15625 5.484375 0.15625 C 5.253906 0.15625 5.015625 0.132812 4.765625 0.09375 C 3.921875 -0.0390625 3.203125 -0.0664062 2.609375 0.015625 C 2.015625 0.109375 1.609375 0.15625 1.390625 0.15625 Z M 1.390625 0.15625 "/></g></g></g><g fill="#2b2b2b" fill-opacity="1"><g transform="translate(184.294722, 230.648392)"><g><path d="M 1.53125 0.15625 C 1.070312 0.15625 0.84375 0.0234375 0.84375 -0.234375 C 0.84375 -0.429688 0.96875 -0.53125 1.21875 -0.53125 L 1.734375 -0.484375 C 2.109375 -0.484375 2.367188 -0.660156 2.515625 -1.015625 C 2.671875 -1.421875 2.75 -2.1875 2.75 -3.3125 L 2.703125 -10.671875 C 2.703125 -11.828125 2.640625 -12.550781 2.515625 -12.84375 C 2.398438 -13.132812 2.273438 -13.316406 2.140625 -13.390625 C 2.015625 -13.460938 1.863281 -13.5 1.6875 -13.5 L 1.171875 -13.46875 C 0.921875 -13.46875 0.796875 -13.566406 0.796875 -13.765625 C 0.796875 -14.023438 0.984375 -14.15625 1.359375 -14.15625 C 1.742188 -14.15625 2.109375 -14.125 2.453125 -14.0625 C 2.796875 -14.007812 3.15625 -13.984375 3.53125 -13.984375 C 3.914062 -13.984375 4.273438 -14.007812 4.609375 -14.0625 C 4.953125 -14.125 5.3125 -14.15625 5.6875 -14.15625 C 6.070312 -14.15625 6.265625 -14.023438 6.265625 -13.765625 C 6.265625 -13.566406 6.140625 -13.46875 5.890625 -13.46875 L 5.390625 -13.5 C 5.015625 -13.5 4.753906 -13.320312 4.609375 -12.96875 C 4.441406 -12.5625 4.359375 -11.796875 4.359375 -10.671875 L 4.421875 -3.3125 C 4.421875 -2.1875 4.488281 -1.46875 4.625 -1.15625 C 4.757812 -0.851562 4.894531 -0.664062 5.03125 -0.59375 C 5.164062 -0.519531 5.328125 -0.484375 5.515625 -0.484375 L 6.015625 -0.53125 C 6.265625 -0.53125 6.390625 -0.429688 6.390625 -0.234375 C 6.390625 0.0234375 6.164062 0.15625 5.71875 0.15625 C 5.488281 0.15625 5.242188 0.132812 4.984375 0.09375 C 4.117188 -0.0390625 3.378906 -0.0664062 2.765625 0.015625 C 2.160156 0.109375 1.75 0.15625 1.53125 0.15625 Z M 1.53125 0.15625 "/></g></g></g><g fill="#2b2b2b" fill-opacity="1"><g transform="translate(197.927948, 230.648392)"><g><path d="M 1.390625 0.15625 C 0.929688 0.15625 0.703125 0.0234375 0.703125 -0.234375 C 0.703125 -0.429688 0.828125 -0.53125 1.078125 -0.53125 L 1.59375 -0.484375 C 2.007812 -0.484375 2.289062 -0.710938 2.4375 -1.171875 C 2.5625 -1.578125 2.625 -2.289062 2.625 -3.3125 L 2.625 -10.671875 C 2.625 -11.703125 2.570312 -12.375 2.46875 -12.6875 C 2.375 -13 2.257812 -13.210938 2.125 -13.328125 C 1.988281 -13.441406 1.8125 -13.5 1.59375 -13.5 L 1.078125 -13.46875 C 0.828125 -13.46875 0.703125 -13.566406 0.703125 -13.765625 C 0.703125 -14.023438 0.894531 -14.15625 1.28125 -14.15625 C 1.664062 -14.15625 2.03125 -14.125 2.375 -14.0625 C 2.71875 -14.007812 3.097656 -13.984375 3.515625 -13.984375 C 3.941406 -13.984375 4.316406 -14.007812 4.640625 -14.0625 C 4.960938 -14.125 5.242188 -14.15625 5.484375 -14.15625 C 6.972656 -14.15625 8.175781 -13.703125 9.09375 -12.796875 C 9.9375 -11.960938 10.359375 -10.960938 10.359375 -9.796875 C 10.359375 -8.722656 9.9375 -7.785156 9.09375 -6.984375 C 8.28125 -6.203125 7.34375 -5.8125 6.28125 -5.8125 C 5.46875 -5.8125 4.910156 -5.972656 4.609375 -6.296875 C 4.523438 -6.390625 4.484375 -6.492188 4.484375 -6.609375 C 4.484375 -6.722656 4.515625 -6.8125 4.578125 -6.875 C 4.640625 -6.9375 4.722656 -6.96875 4.828125 -6.96875 C 4.921875 -6.96875 5.054688 -6.898438 5.234375 -6.765625 C 5.503906 -6.566406 5.835938 -6.46875 6.234375 -6.46875 C 6.640625 -6.46875 6.984375 -6.546875 7.265625 -6.703125 C 7.546875 -6.859375 7.785156 -7.082031 7.984375 -7.375 C 8.390625 -7.957031 8.59375 -8.753906 8.59375 -9.765625 C 8.59375 -10.890625 8.28125 -11.785156 7.65625 -12.453125 C 7.050781 -13.097656 6.265625 -13.421875 5.296875 -13.421875 C 4.941406 -13.421875 4.679688 -13.367188 4.515625 -13.265625 C 4.347656 -13.171875 4.265625 -13.007812 4.265625 -12.78125 L 4.265625 -3.3125 C 4.265625 -2.257812 4.3125 -1.582031 4.40625 -1.28125 C 4.5 -0.976562 4.613281 -0.769531 4.75 -0.65625 C 4.882812 -0.539062 5.0625 -0.484375 5.28125 -0.484375 L 5.78125 -0.53125 C 6.03125 -0.53125 6.15625 -0.429688 6.15625 -0.234375 C 6.15625 0.0234375 5.929688 0.15625 5.484375 0.15625 C 5.253906 0.15625 5.015625 0.132812 4.765625 0.09375 C 3.921875 -0.0390625 3.203125 -0.0664062 2.609375 0.015625 C 2.015625 0.109375 1.609375 0.15625 1.390625 0.15625 Z M 1.390625 0.15625 "/></g></g></g><g fill="#2b2b2b" fill-opacity="1"><g transform="translate(215.671101, 230.648392)"><g><path d="M 1.34375 0.15625 C 0.894531 0.15625 0.671875 0.0351562 0.671875 -0.203125 C 0.671875 -0.453125 0.816406 -0.578125 1.109375 -0.578125 C 1.554688 -0.578125 1.867188 -0.644531 2.046875 -0.78125 C 2.398438 -1.039062 2.609375 -1.484375 2.671875 -2.109375 C 2.679688 -2.253906 2.695312 -2.472656 2.71875 -2.765625 C 2.738281 -3.066406 2.757812 -3.414062 2.78125 -3.8125 C 2.800781 -4.21875 2.820312 -4.660156 2.84375 -5.140625 C 2.863281 -5.628906 2.882812 -6.128906 2.90625 -6.640625 C 2.9375 -7.148438 2.960938 -7.660156 2.984375 -8.171875 C 3.003906 -8.691406 3.019531 -9.1875 3.03125 -9.65625 C 3.070312 -10.8125 3.09375 -11.539062 3.09375 -11.84375 C 3.09375 -12.15625 3.066406 -12.398438 3.015625 -12.578125 C 2.972656 -12.753906 2.910156 -12.894531 2.828125 -13 C 2.671875 -13.195312 2.425781 -13.320312 2.09375 -13.375 C 1.488281 -13.457031 1.1875 -13.582031 1.1875 -13.75 C 1.1875 -13.875 1.226562 -13.972656 1.3125 -14.046875 C 1.40625 -14.117188 1.519531 -14.15625 1.65625 -14.15625 L 3.296875 -14 L 4.21875 -14.046875 C 4.382812 -14.046875 4.519531 -13.972656 4.625 -13.828125 C 4.738281 -13.691406 4.867188 -13.484375 5.015625 -13.203125 L 10.0625 -2.734375 C 10.175781 -3.003906 10.332031 -3.363281 10.53125 -3.8125 C 10.726562 -4.257812 10.941406 -4.753906 11.171875 -5.296875 C 11.398438 -5.835938 11.644531 -6.410156 11.90625 -7.015625 C 12.175781 -7.617188 12.441406 -8.21875 12.703125 -8.8125 C 12.960938 -9.414062 13.207031 -9.988281 13.4375 -10.53125 C 13.675781 -11.082031 13.882812 -11.570312 14.0625 -12 C 14.25 -12.4375 14.398438 -12.789062 14.515625 -13.0625 C 14.640625 -13.332031 14.722656 -13.523438 14.765625 -13.640625 C 14.804688 -13.753906 14.894531 -13.859375 15.03125 -13.953125 C 15.164062 -14.046875 15.320312 -14.09375 15.5 -14.09375 L 16.484375 -14.0625 L 17.734375 -14.15625 C 18.253906 -14.15625 18.515625 -14.023438 18.515625 -13.765625 C 18.515625 -13.640625 18.398438 -13.550781 18.171875 -13.5 C 17.941406 -13.457031 17.742188 -13.421875 17.578125 -13.390625 C 17.421875 -13.359375 17.273438 -13.304688 17.140625 -13.234375 C 16.816406 -13.054688 16.65625 -12.769531 16.65625 -12.375 L 17.1875 -2.15625 C 17.238281 -1.25 17.578125 -0.738281 18.203125 -0.625 C 18.378906 -0.59375 18.550781 -0.578125 18.71875 -0.578125 C 19.007812 -0.578125 19.15625 -0.453125 19.15625 -0.203125 C 19.15625 0.0351562 18.9375 0.15625 18.5 0.15625 C 18.332031 0.15625 18.1875 0.144531 18.0625 0.125 C 17.9375 0.113281 17.8125 0.0976562 17.6875 0.078125 C 17.300781 0.0234375 16.957031 0 16.65625 0 L 14.4375 0.15625 C 13.976562 0.15625 13.75 0.0234375 13.75 -0.234375 C 13.75 -0.441406 13.910156 -0.546875 14.234375 -0.546875 C 14.566406 -0.546875 14.804688 -0.570312 14.953125 -0.625 C 15.109375 -0.675781 15.222656 -0.757812 15.296875 -0.875 C 15.390625 -1.039062 15.4375 -1.4375 15.4375 -2.0625 L 15.4375 -3.03125 C 15.4375 -3.507812 15.398438 -4.472656 15.328125 -5.921875 C 15.265625 -7.367188 15.21875 -8.398438 15.1875 -9.015625 C 15.132812 -10.328125 15.082031 -11.316406 15.03125 -11.984375 L 10.09375 -0.671875 C 9.914062 -0.265625 9.753906 -0.0625 9.609375 -0.0625 C 9.503906 -0.0625 9.414062 -0.109375 9.34375 -0.203125 C 9.28125 -0.304688 9.195312 -0.472656 9.09375 -0.703125 L 4.046875 -11.109375 C 3.773438 -7.566406 3.640625 -4.328125 3.640625 -1.390625 C 3.640625 -0.816406 4.101562 -0.53125 5.03125 -0.53125 C 5.28125 -0.53125 5.40625 -0.429688 5.40625 -0.234375 C 5.40625 0.0234375 5.179688 0.15625 4.734375 0.15625 L 3.03125 0 C 2.675781 0 2.34375 0.0234375 2.03125 0.078125 C 1.71875 0.128906 1.488281 0.15625 1.34375 0.15625 Z M 15.34375 -12.71875 L 15.359375 -12.71875 Z M 15.34375 -12.71875 "/></g></g></g><g fill="#2b2b2b" fill-opacity="1"><g transform="translate(242.061804, 230.648392)"><g><path d="M 1.25 0.15625 C 0.863281 0.15625 0.671875 0.0234375 0.671875 -0.234375 C 0.671875 -0.429688 0.796875 -0.53125 1.046875 -0.53125 L 1.5625 -0.484375 C 1.957031 -0.484375 2.222656 -0.648438 2.359375 -0.984375 C 2.515625 -1.367188 2.59375 -2.132812 2.59375 -3.28125 L 2.59375 -10.671875 C 2.59375 -11.816406 2.535156 -12.535156 2.421875 -12.828125 C 2.316406 -13.128906 2.195312 -13.316406 2.0625 -13.390625 C 1.9375 -13.460938 1.769531 -13.5 1.5625 -13.5 L 1.046875 -13.46875 C 0.796875 -13.46875 0.671875 -13.566406 0.671875 -13.765625 C 0.671875 -14.023438 0.859375 -14.15625 1.234375 -14.15625 C 1.609375 -14.15625 1.914062 -14.144531 2.15625 -14.125 C 2.394531 -14.101562 2.632812 -14.082031 2.875 -14.0625 C 3.519531 -14.007812 4.03125 -13.984375 4.40625 -13.984375 C 4.78125 -13.984375 5.175781 -13.988281 5.59375 -14 C 6.007812 -14.019531 6.476562 -14.039062 7 -14.0625 C 8.351562 -14.125 9.289062 -14.15625 9.8125 -14.15625 C 10.34375 -14.15625 10.632812 -14.125 10.6875 -14.0625 C 10.75 -14 10.78125 -13.910156 10.78125 -13.796875 C 10.78125 -13.691406 10.773438 -13.585938 10.765625 -13.484375 C 10.765625 -13.390625 10.765625 -13.285156 10.765625 -13.171875 C 10.753906 -13.015625 10.726562 -12.773438 10.6875 -12.453125 C 10.65625 -12.140625 10.613281 -11.925781 10.5625 -11.8125 C 10.519531 -11.707031 10.453125 -11.65625 10.359375 -11.65625 C 10.273438 -11.65625 10.210938 -11.675781 10.171875 -11.71875 C 10.140625 -11.769531 10.09375 -11.875 10.03125 -12.03125 C 9.976562 -12.195312 9.875 -12.351562 9.71875 -12.5 C 9.570312 -12.65625 9.335938 -12.78125 9.015625 -12.875 C 8.390625 -13.0625 7.234375 -13.15625 5.546875 -13.15625 L 4.609375 -13.15625 C 4.441406 -13.15625 4.335938 -13.128906 4.296875 -13.078125 C 4.253906 -13.035156 4.234375 -12.925781 4.234375 -12.75 L 4.234375 -8.359375 C 5.054688 -8.265625 5.738281 -8.21875 6.28125 -8.21875 C 6.832031 -8.21875 7.222656 -8.21875 7.453125 -8.21875 C 7.691406 -8.226562 7.882812 -8.25 8.03125 -8.28125 C 8.300781 -8.332031 8.5 -8.457031 8.625 -8.65625 C 8.851562 -9.019531 9.039062 -9.203125 9.1875 -9.203125 C 9.382812 -9.203125 9.484375 -9.101562 9.484375 -8.90625 L 9.109375 -7.4375 L 9.15625 -6.640625 C 9.15625 -6.140625 9.035156 -5.890625 8.796875 -5.890625 C 8.597656 -5.890625 8.5 -6.019531 8.5 -6.28125 C 8.5 -6.550781 8.484375 -6.753906 8.453125 -6.890625 C 8.421875 -7.023438 8.332031 -7.128906 8.1875 -7.203125 C 7.957031 -7.316406 7.410156 -7.375 6.546875 -7.375 C 5.691406 -7.375 4.921875 -7.332031 4.234375 -7.25 L 4.234375 -4.78125 C 4.234375 -3.238281 4.265625 -1.96875 4.328125 -0.96875 C 4.890625 -0.84375 5.5 -0.78125 6.15625 -0.78125 C 6.820312 -0.78125 7.390625 -0.796875 7.859375 -0.828125 C 8.328125 -0.867188 8.734375 -0.941406 9.078125 -1.046875 C 9.753906 -1.242188 10.253906 -1.628906 10.578125 -2.203125 C 10.710938 -2.453125 10.847656 -2.578125 10.984375 -2.578125 C 11.128906 -2.578125 11.203125 -2.476562 11.203125 -2.28125 C 11.203125 -2.195312 11.175781 -2.085938 11.125 -1.953125 C 11.070312 -1.773438 10.992188 -1.503906 10.890625 -1.140625 C 10.785156 -0.785156 10.703125 -0.523438 10.640625 -0.359375 C 10.585938 -0.203125 10.523438 -0.0820312 10.453125 0 C 10.347656 0.132812 10.144531 0.203125 9.84375 0.203125 C 9.539062 0.203125 9.242188 0.203125 8.953125 0.203125 C 8.671875 0.203125 8.375 0.195312 8.0625 0.1875 C 7.695312 0.175781 7.132812 0.148438 6.375 0.109375 C 4.476562 0.015625 3.367188 -0.0195312 3.046875 0 C 2.722656 0.03125 2.476562 0.0546875 2.3125 0.078125 C 2.144531 0.0976562 1.976562 0.113281 1.8125 0.125 C 1.65625 0.144531 1.46875 0.15625 1.25 0.15625 Z M 1.25 0.15625 "/></g></g></g><g fill="#2b2b2b" fill-opacity="1"><g transform="translate(260.649892, 230.648392)"><g><path d="M 1.421875 0.15625 C 0.960938 0.15625 0.734375 0.0234375 0.734375 -0.234375 C 0.734375 -0.429688 0.859375 -0.53125 1.109375 -0.53125 L 1.625 -0.484375 C 2.039062 -0.484375 2.320312 -0.710938 2.46875 -1.171875 C 2.59375 -1.578125 2.65625 -2.289062 2.65625 -3.3125 L 2.65625 -10.65625 C 2.65625 -11.6875 2.601562 -12.351562 2.5 -12.65625 C 2.40625 -12.96875 2.289062 -13.179688 2.15625 -13.296875 C 2.019531 -13.410156 1.84375 -13.46875 1.625 -13.46875 L 1.109375 -13.421875 C 0.859375 -13.421875 0.734375 -13.523438 0.734375 -13.734375 C 0.734375 -14.003906 0.960938 -14.140625 1.421875 -14.140625 L 2.78125 -13.984375 C 3.070312 -13.984375 3.332031 -14.003906 3.5625 -14.046875 L 13.1875 -2.875 L 13.1875 -10.671875 C 13.1875 -11.691406 13.128906 -12.359375 13.015625 -12.671875 C 12.910156 -12.992188 12.785156 -13.210938 12.640625 -13.328125 C 12.503906 -13.441406 12.328125 -13.5 12.109375 -13.5 L 11.59375 -13.46875 C 11.34375 -13.46875 11.21875 -13.566406 11.21875 -13.765625 C 11.21875 -14.023438 11.441406 -14.15625 11.890625 -14.15625 C 12.066406 -14.15625 12.300781 -14.128906 12.59375 -14.078125 C 12.96875 -14.015625 13.300781 -13.984375 13.59375 -13.984375 C 13.894531 -13.984375 14.1875 -14.007812 14.46875 -14.0625 C 14.757812 -14.125 15.09375 -14.15625 15.46875 -14.15625 C 15.851562 -14.15625 16.046875 -14.023438 16.046875 -13.765625 C 16.046875 -13.566406 15.921875 -13.46875 15.671875 -13.46875 L 15.171875 -13.5 C 14.742188 -13.5 14.457031 -13.269531 14.3125 -12.8125 C 14.195312 -12.4375 14.140625 -11.722656 14.140625 -10.671875 L 14.140625 -0.140625 C 14.140625 0.0976562 14.117188 0.253906 14.078125 0.328125 C 14.035156 0.410156 13.96875 0.453125 13.875 0.453125 C 13.75 0.453125 13.550781 0.304688 13.28125 0.015625 L 3.65625 -11.140625 L 3.65625 -3.3125 C 3.65625 -2.257812 3.703125 -1.582031 3.796875 -1.28125 C 3.890625 -0.976562 4.003906 -0.769531 4.140625 -0.65625 C 4.285156 -0.539062 4.46875 -0.484375 4.6875 -0.484375 L 5.1875 -0.53125 C 5.4375 -0.53125 5.5625 -0.429688 5.5625 -0.234375 C 5.5625 0.0234375 5.359375 0.15625 4.953125 0.15625 C 4.554688 0.15625 4.203125 0.128906 3.890625 0.078125 C 3.585938 0.0234375 3.289062 0 3 0 C 2.707031 0 2.421875 0.0234375 2.140625 0.078125 C 1.859375 0.128906 1.617188 0.15625 1.421875 0.15625 Z M 1.421875 0.15625 "/></g></g></g><g fill="#2b2b2b" fill-opacity="1"><g transform="translate(283.431369, 230.648392)"><g><path d="M 4.28125 0.15625 C 3.820312 0.15625 3.59375 0.0234375 3.59375 -0.234375 C 3.59375 -0.429688 3.71875 -0.53125 3.96875 -0.53125 L 4.484375 -0.484375 C 4.898438 -0.484375 5.179688 -0.710938 5.328125 -1.171875 C 5.453125 -1.578125 5.515625 -2.289062 5.515625 -3.3125 L 5.515625 -13.0625 L 5.234375 -13.0625 C 4.015625 -13.0625 3.039062 -12.9375 2.3125 -12.6875 C 1.8125 -12.507812 1.472656 -12.203125 1.296875 -11.765625 C 1.160156 -11.441406 1.019531 -11.28125 0.875 -11.28125 C 0.675781 -11.28125 0.578125 -11.398438 0.578125 -11.640625 C 0.578125 -11.703125 0.59375 -11.78125 0.625 -11.875 C 0.65625 -11.96875 0.691406 -12.078125 0.734375 -12.203125 C 0.835938 -12.535156 0.898438 -12.878906 0.921875 -13.234375 C 0.941406 -13.597656 0.984375 -13.84375 1.046875 -13.96875 C 1.109375 -14.09375 1.191406 -14.15625 1.296875 -14.15625 C 1.398438 -14.15625 1.492188 -14.144531 1.578125 -14.125 C 1.660156 -14.101562 1.78125 -14.082031 1.9375 -14.0625 C 2.351562 -14.007812 2.878906 -13.984375 3.515625 -13.984375 L 10.140625 -13.984375 C 10.648438 -13.984375 11.019531 -14.007812 11.25 -14.0625 C 11.488281 -14.125 11.660156 -14.15625 11.765625 -14.15625 C 11.992188 -14.15625 12.109375 -14.046875 12.109375 -13.828125 C 12.109375 -13.710938 12.085938 -13.582031 12.046875 -13.4375 C 11.941406 -13.09375 11.875 -12.796875 11.84375 -12.546875 C 11.8125 -12.304688 11.78125 -12.101562 11.75 -11.9375 C 11.71875 -11.78125 11.6875 -11.660156 11.65625 -11.578125 C 11.601562 -11.421875 11.519531 -11.34375 11.40625 -11.34375 C 11.289062 -11.34375 11.21875 -11.378906 11.1875 -11.453125 C 11.15625 -11.535156 11.125 -11.691406 11.09375 -11.921875 C 11.0625 -12.160156 11.003906 -12.351562 10.921875 -12.5 C 10.835938 -12.644531 10.722656 -12.757812 10.578125 -12.84375 C 10.335938 -12.988281 9.941406 -13.0625 9.390625 -13.0625 L 7.15625 -13.0625 L 7.15625 -3.3125 C 7.15625 -2.257812 7.203125 -1.582031 7.296875 -1.28125 C 7.390625 -0.976562 7.503906 -0.769531 7.640625 -0.65625 C 7.773438 -0.539062 7.953125 -0.484375 8.171875 -0.484375 L 8.671875 -0.53125 C 8.921875 -0.53125 9.046875 -0.429688 9.046875 -0.234375 C 9.046875 0.0234375 8.820312 0.15625 8.375 0.15625 C 8.144531 0.15625 7.90625 0.132812 7.65625 0.09375 C 6.8125 -0.0390625 6.09375 -0.0664062 5.5 0.015625 C 4.90625 0.109375 4.5 0.15625 4.28125 0.15625 Z M 4.28125 0.15625 "/></g></g></g></svg>